<?xml version="1.0" encoding="utf-8"?>
<!-- Generated by IcoMoon.io -->
<!DOCTYPE svg PUBLIC "-//W3C//DTD SVG 1.1//EN" "http://www.w3.org/Graphics/SVG/1.1/DTD/svg11.dtd">

<svg version="1.1" xmlns="http://www.w3.org/2000/svg" xmlns:xlink="http://www.w3.org/1999/xlink" width="320" height="32" viewBox="0 0 320 32">
<defs>
<g id="icon-google">
	<path class="path1" d="M24.673 2c0 0-6.28 0-8.373 0-3.754 0-7.287 2.844-7.287 6.138 0 3.366 2.559 6.083 6.378 6.083 0.266 0 0.524-0.005 0.776-0.024-0.248 0.475-0.425 1.009-0.425 1.564 0 0.936 0.503 1.694 1.14 2.313-0.481 0-0.945 0.014-1.452 0.014-4.649-0-8.228 2.961-8.228 6.032 0 3.024 3.923 4.916 8.573 4.916 5.301 0 8.228-3.008 8.228-6.032 0-2.425-0.715-3.877-2.928-5.442-0.757-0.536-2.204-1.839-2.204-2.604 0-0.897 0.256-1.34 1.607-2.395 1.385-1.082 2.365-2.603 2.365-4.372 0-2.106-0.938-4.159-2.699-4.837h2.655l1.874-1.354zM21.748 22.483c0.066 0.28 0.103 0.569 0.103 0.863 0 2.444-1.575 4.353-6.093 4.353-3.214 0-5.535-2.035-5.535-4.478 0-2.395 2.879-4.389 6.093-4.354 0.75 0.008 1.449 0.129 2.083 0.334 1.745 1.213 2.996 1.899 3.349 3.281zM16.603 13.368c-2.157-0.065-4.207-2.413-4.58-5.246s1.074-5.001 3.231-4.937c2.157 0.065 4.207 2.338 4.58 5.171s-1.075 5.077-3.231 5.012z"></path>
</g>
<g id="icon-facebook">
	<path class="path1" d="M17.996 32h-5.996v-16h-4v-5.514l4-0.002-0.007-3.248c0-4.498 1.22-7.236 6.519-7.236h4.412v5.515h-2.757c-2.064 0-2.163 0.771-2.163 2.209l-0.008 2.76h4.959l-0.584 5.514-4.37 0.002-0.004 16z"></path>
</g>
<g id="icon-twitter">
	<path class="path1" d="M32 6.076c-1.177 0.522-2.443 0.875-3.771 1.034 1.355-0.813 2.396-2.099 2.887-3.632-1.269 0.752-2.674 1.299-4.169 1.593-1.198-1.276-2.904-2.073-4.792-2.073-3.626 0-6.565 2.939-6.565 6.565 0 0.515 0.058 1.016 0.17 1.496-5.456-0.274-10.294-2.888-13.532-6.86-0.565 0.97-0.889 2.097-0.889 3.301 0 2.278 1.159 4.287 2.921 5.465-1.076-0.034-2.088-0.329-2.974-0.821-0.001 0.027-0.001 0.055-0.001 0.083 0 3.181 2.263 5.834 5.266 6.437-0.551 0.15-1.131 0.23-1.73 0.23-0.423 0-0.834-0.041-1.235-0.118 0.835 2.608 3.26 4.506 6.133 4.559-2.247 1.761-5.078 2.81-8.154 2.81-0.53 0-1.052-0.031-1.566-0.092 2.905 1.863 6.356 2.95 10.064 2.95 12.076 0 18.679-10.004 18.679-18.68 0-0.285-0.006-0.568-0.019-0.849 1.283-0.926 2.396-2.082 3.276-3.398z"></path>
</g>
<g id="icon-youtube">
	<path class="path1" d="M26 4h-20c-3.3 0-6 2.7-6 6v12c0 3.3 2.7 6 6 6h20c3.3 0 6-2.7 6-6v-12c0-3.3-2.7-6-6-6zM12 24v-16l10 8-10 8z"></path>
</g>
<g id="icon-yahoo">
	<path class="path1" d="M26.5 20l-0.464-13.001c-0.020-0.55 0.414-0.999 0.964-0.999h4c0.55 0 0.921 0.443 0.824 0.984l-2.324 13.016zM30 24.25c0 0.962-0.788 1.75-1.75 1.75h-0.5c-0.962 0-1.75-0.788-1.75-1.75v-0.5c0-0.962 0.788-1.75 1.75-1.75h0.5c0.962 0 1.75 0.788 1.75 1.75v0.5zM12 6c-6.627 0-12 4.477-12 10s5.373 10 12 10c6.627 0 12-4.477 12-10s-5.373-10-12-10zM20 14h-2.321l-3.679 3.679v2.321h3v2h-8v-2h3v-2.321l-5.679-5.679h-1.314v-2h5.988v2h-1.315l3.321 3.321 1-1v-2.321h6v2z"></path>
</g>
<g id="icon-windows">
	<path class="path1" d="M12.882 15.997c-1.491-0.766-2.94-1.155-4.309-1.155-0.186 0-0.373 0.006-0.561 0.022-1.746 0.145-3.341 0.605-4.367 0.963-0.272 0.1-0.551 0.205-0.838 0.322l-2.807 9.731c1.928-0.713 3.634-1.061 5.196-1.061 2.526 0 4.36 0.944 5.875 1.916 0.718-2.435 2.439-8.315 2.953-10.073-0.373-0.228-0.752-0.455-1.141-0.666zM16.511 18.471l-2.826 9.817c0.838 0.48 3.659 2.002 5.819 2.002 1.744 0 3.695-0.447 5.964-1.369l2.699-9.437c-1.832 0.591-3.59 0.891-5.233 0.891-2.998 0-5.097-0.972-6.422-1.905zM9.151 11.525c2.41 0.025 4.192 0.944 5.669 1.891l2.899-9.917c-0.611-0.35-2.213-1.222-3.371-1.519-0.762-0.178-1.563-0.269-2.413-0.269-1.619 0.030-3.387 0.436-5.403 1.244l-2.764 9.706c2.025-0.764 3.77-1.136 5.378-1.136 0.001 0 0.004 0 0.004 0zM32 6.191c-1.838 0.713-3.631 1.077-5.345 1.077-2.865 0-4.978-0.994-6.347-1.949l-2.873 9.945c1.93 1.241 4.009 1.871 6.191 1.871 1.78 0 3.623-0.427 5.483-1.271l-0.006-0.069 0.117-0.028 2.779-9.576z"></path>
</g>
<g id="icon-windows8">
	<path class="path1" d="M0.011 16l-0.011-9.752 12-1.63v11.382zM14 4.328l15.996-2.328v14h-15.996zM30 18l-0.004 14-15.996-2.25v-11.75zM12 29.495l-11.99-1.644-0.001-9.851h11.991z"></path>
</g>
</defs>

<g fill="#000000">
	<use xlink:href="#icon-google" transform="translate(0 0)"></use>
	<use xlink:href="#icon-facebook" transform="translate(48 0)"></use>
	<use xlink:href="#icon-twitter" transform="translate(96 0)"></use>
	<use xlink:href="#icon-youtube" transform="translate(144 0)"></use>
	<use xlink:href="#icon-yahoo" transform="translate(192 0)"></use>
	<use xlink:href="#icon-windows" transform="translate(240 0)"></use>
	<use xlink:href="#icon-windows8" transform="translate(288 0)"></use>
</g>

</svg>
